<svg id="visual" viewBox="0 0 960 150" width="960" height="150" xmlns="http://www.w3.org/2000/svg" xmlns:xlink="http://www.w3.org/1999/xlink" version="1.1"><rect x="0" y="0" width="960" height="150" fill="#001220"></rect><path d="M0 102L9.3 99.5C18.7 97 37.3 92 56.2 92.3C75 92.7 94 98.3 112.8 96C131.7 93.7 150.3 83.3 169.2 76C188 68.7 207 64.3 225.8 59.8C244.7 55.3 263.3 50.7 282.2 56C301 61.3 320 76.7 338.8 83.8C357.7 91 376.3 90 395.2 84.3C414 78.7 433 68.3 451.8 62.7C470.7 57 489.3 56 508.2 58C527 60 546 65 564.8 72.3C583.7 79.7 602.3 89.3 621.2 88.8C640 88.3 659 77.7 677.8 76.5C696.7 75.3 715.3 83.7 734.2 89C753 94.3 772 96.7 790.8 95.8C809.7 95 828.3 91 847.2 89.8C866 88.7 885 90.3 903.8 84.2C922.7 78 941.3 64 950.7 57L960 50L960 151L950.7 151C941.3 151 922.7 151 903.8 151C885 151 866 151 847.2 151C828.3 151 809.7 151 790.8 151C772 151 753 151 734.2 151C715.3 151 696.7 151 677.8 151C659 151 640 151 621.2 151C602.3 151 583.7 151 564.8 151C546 151 527 151 508.2 151C489.3 151 470.7 151 451.8 151C433 151 414 151 395.2 151C376.3 151 357.7 151 338.8 151C320 151 301 151 282.2 151C263.3 151 244.7 151 225.8 151C207 151 188 151 169.2 151C150.3 151 131.7 151 112.8 151C94 151 75 151 56.2 151C37.3 151 18.7 151 9.3 151L0 151Z" fill="#fa7268"></path><path d="M0 69L9.3 74.3C18.7 79.7 37.3 90.3 56.2 91.2C75 92 94 83 112.8 79.8C131.7 76.7 150.3 79.3 169.2 81.3C188 83.3 207 84.7 225.8 81.7C244.7 78.7 263.3 71.3 282.2 73.7C301 76 320 88 338.8 89C357.7 90 376.3 80 395.2 73.8C414 67.7 433 65.3 451.8 67.5C470.7 69.7 489.3 76.3 508.2 82.7C527 89 546 95 564.8 93C583.7 91 602.3 81 621.2 77.3C640 73.7 659 76.3 677.8 76.5C696.7 76.7 715.3 74.3 734.2 79.3C753 84.3 772 96.7 790.8 96.2C809.7 95.7 828.3 82.3 847.2 81.5C866 80.7 885 92.3 903.8 92.7C922.7 93 941.3 82 950.7 76.5L960 71L960 151L950.7 151C941.3 151 922.7 151 903.8 151C885 151 866 151 847.2 151C828.3 151 809.7 151 790.8 151C772 151 753 151 734.2 151C715.3 151 696.7 151 677.8 151C659 151 640 151 621.2 151C602.3 151 583.7 151 564.8 151C546 151 527 151 508.2 151C489.3 151 470.7 151 451.8 151C433 151 414 151 395.2 151C376.3 151 357.7 151 338.8 151C320 151 301 151 282.2 151C263.3 151 244.7 151 225.8 151C207 151 188 151 169.2 151C150.3 151 131.7 151 112.8 151C94 151 75 151 56.2 151C37.3 151 18.7 151 9.3 151L0 151Z" fill="#ef5f67"></path><path d="M0 98L9.3 97C18.7 96 37.3 94 56.2 92C75 90 94 88 112.8 91.8C131.7 95.7 150.3 105.3 169.2 105.8C188 106.3 207 97.7 225.8 92.3C244.7 87 263.3 85 282.2 86.8C301 88.7 320 94.3 338.8 96.2C357.7 98 376.3 96 395.2 96.7C414 97.3 433 100.7 451.8 104.3C470.7 108 489.3 112 508.2 111.3C527 110.7 546 105.3 564.8 99.5C583.7 93.7 602.3 87.3 621.2 86.5C640 85.7 659 90.3 677.8 90.3C696.7 90.3 715.3 85.7 734.2 87.2C753 88.7 772 96.3 790.8 101.8C809.7 107.3 828.3 110.7 847.2 109C866 107.3 885 100.7 903.8 98.3C922.7 96 941.3 98 950.7 99L960 100L960 151L950.7 151C941.3 151 922.7 151 903.8 151C885 151 866 151 847.2 151C828.3 151 809.7 151 790.8 151C772 151 753 151 734.2 151C715.3 151 696.7 151 677.8 151C659 151 640 151 621.2 151C602.3 151 583.7 151 564.8 151C546 151 527 151 508.2 151C489.3 151 470.7 151 451.8 151C433 151 414 151 395.2 151C376.3 151 357.7 151 338.8 151C320 151 301 151 282.2 151C263.3 151 244.7 151 225.8 151C207 151 188 151 169.2 151C150.3 151 131.7 151 112.8 151C94 151 75 151 56.2 151C37.3 151 18.7 151 9.3 151L0 151Z" fill="#e34c67"></path><path d="M0 116L9.3 115.2C18.7 114.3 37.3 112.7 56.2 110.3C75 108 94 105 112.8 107C131.7 109 150.3 116 169.2 115.7C188 115.3 207 107.7 225.8 103.7C244.7 99.7 263.3 99.3 282.2 102.5C301 105.7 320 112.3 338.8 112.3C357.7 112.3 376.3 105.7 395.2 102.3C414 99 433 99 451.8 99.3C470.7 99.7 489.3 100.3 508.2 100C527 99.7 546 98.3 564.8 102.2C583.7 106 602.3 115 621.2 117.2C640 119.3 659 114.7 677.8 110.2C696.7 105.7 715.3 101.3 734.2 101.5C753 101.7 772 106.3 790.8 106.8C809.7 107.3 828.3 103.7 847.2 102.2C866 100.7 885 101.3 903.8 101.8C922.7 102.3 941.3 102.7 950.7 102.8L960 103L960 151L950.7 151C941.3 151 922.7 151 903.8 151C885 151 866 151 847.2 151C828.3 151 809.7 151 790.8 151C772 151 753 151 734.2 151C715.3 151 696.7 151 677.8 151C659 151 640 151 621.2 151C602.3 151 583.7 151 564.8 151C546 151 527 151 508.2 151C489.3 151 470.7 151 451.8 151C433 151 414 151 395.2 151C376.3 151 357.7 151 338.8 151C320 151 301 151 282.2 151C263.3 151 244.7 151 225.8 151C207 151 188 151 169.2 151C150.3 151 131.7 151 112.8 151C94 151 75 151 56.2 151C37.3 151 18.7 151 9.3 151L0 151Z" fill="#d53867"></path><path d="M0 125L9.3 123.3C18.7 121.7 37.3 118.3 56.2 118C75 117.7 94 120.3 112.8 123C131.7 125.7 150.3 128.3 169.2 129.8C188 131.3 207 131.7 225.8 132C244.7 132.3 263.3 132.7 282.2 129.8C301 127 320 121 338.8 119.7C357.7 118.3 376.3 121.7 395.2 121.8C414 122 433 119 451.8 117.2C470.7 115.3 489.3 114.7 508.2 116.2C527 117.7 546 121.3 564.8 121.7C583.7 122 602.3 119 621.2 119.5C640 120 659 124 677.8 125.5C696.7 127 715.3 126 734.2 126.5C753 127 772 129 790.8 129.8C809.7 130.7 828.3 130.3 847.2 127.8C866 125.3 885 120.7 903.8 120.3C922.7 120 941.3 124 950.7 126L960 128L960 151L950.7 151C941.3 151 922.7 151 903.8 151C885 151 866 151 847.2 151C828.3 151 809.7 151 790.8 151C772 151 753 151 734.2 151C715.3 151 696.7 151 677.8 151C659 151 640 151 621.2 151C602.3 151 583.7 151 564.8 151C546 151 527 151 508.2 151C489.3 151 470.7 151 451.8 151C433 151 414 151 395.2 151C376.3 151 357.7 151 338.8 151C320 151 301 151 282.2 151C263.3 151 244.7 151 225.8 151C207 151 188 151 169.2 151C150.3 151 131.7 151 112.8 151C94 151 75 151 56.2 151C37.3 151 18.7 151 9.3 151L0 151Z" fill="#c62368"></path></svg>