<svg id="visual" viewBox="0 0 960 150" width="960" height="150" xmlns="http://www.w3.org/2000/svg" xmlns:xlink="http://www.w3.org/1999/xlink" version="1.1"><rect x="0" y="0" width="960" height="150" fill="#ffffff"></rect><path d="M0 81L17.8 79.5C35.7 78 71.3 75 106.8 76C142.3 77 177.7 82 213.2 84.8C248.7 87.7 284.3 88.3 320 89.7C355.7 91 391.3 93 426.8 89.2C462.3 85.3 497.7 75.7 533.2 74.7C568.7 73.7 604.3 81.3 640 81.5C675.7 81.7 711.3 74.3 746.8 70.8C782.3 67.3 817.7 67.7 853.2 67.2C888.7 66.7 924.3 65.3 942.2 64.7L960 64L960 0L942.2 0C924.3 0 888.7 0 853.2 0C817.7 0 782.3 0 746.8 0C711.3 0 675.7 0 640 0C604.3 0 568.7 0 533.2 0C497.7 0 462.3 0 426.8 0C391.3 0 355.7 0 320 0C284.3 0 248.7 0 213.2 0C177.7 0 142.3 0 106.8 0C71.3 0 35.7 0 17.8 0L0 0Z" fill="#fa7268"></path><path d="M0 66L17.8 66.8C35.7 67.7 71.3 69.3 106.8 65.3C142.3 61.3 177.7 51.7 213.2 50.2C248.7 48.7 284.3 55.3 320 56C355.7 56.7 391.3 51.3 426.8 47.8C462.3 44.3 497.7 42.7 533.2 47.5C568.7 52.3 604.3 63.7 640 67.8C675.7 72 711.3 69 746.8 64.2C782.3 59.3 817.7 52.7 853.2 54C888.7 55.3 924.3 64.7 942.2 69.3L960 74L960 0L942.2 0C924.3 0 888.7 0 853.2 0C817.7 0 782.3 0 746.8 0C711.3 0 675.7 0 640 0C604.3 0 568.7 0 533.2 0C497.7 0 462.3 0 426.8 0C391.3 0 355.7 0 320 0C284.3 0 248.7 0 213.2 0C177.7 0 142.3 0 106.8 0C71.3 0 35.7 0 17.8 0L0 0Z" fill="#ef5f67"></path><path d="M0 60L17.8 60.3C35.7 60.7 71.3 61.3 106.8 57.3C142.3 53.3 177.7 44.7 213.2 42.8C248.7 41 284.3 46 320 46.8C355.7 47.7 391.3 44.3 426.8 42.8C462.3 41.3 497.7 41.7 533.2 43C568.7 44.3 604.3 46.7 640 46.5C675.7 46.3 711.3 43.7 746.8 44C782.3 44.3 817.7 47.7 853.2 49.3C888.7 51 924.3 51 942.2 51L960 51L960 0L942.2 0C924.3 0 888.7 0 853.2 0C817.7 0 782.3 0 746.8 0C711.3 0 675.7 0 640 0C604.3 0 568.7 0 533.2 0C497.7 0 462.3 0 426.8 0C391.3 0 355.7 0 320 0C284.3 0 248.7 0 213.2 0C177.7 0 142.3 0 106.8 0C71.3 0 35.7 0 17.8 0L0 0Z" fill="#e34c67"></path><path d="M0 22L17.8 25.8C35.7 29.7 71.3 37.3 106.8 37.5C142.3 37.7 177.7 30.3 213.2 27.5C248.7 24.7 284.3 26.3 320 26.7C355.7 27 391.3 26 426.8 26.8C462.3 27.7 497.7 30.3 533.2 31.8C568.7 33.3 604.3 33.7 640 35.3C675.7 37 711.3 40 746.8 39.2C782.3 38.3 817.7 33.7 853.2 29.3C888.7 25 924.3 21 942.2 19L960 17L960 0L942.2 0C924.3 0 888.7 0 853.2 0C817.7 0 782.3 0 746.8 0C711.3 0 675.7 0 640 0C604.3 0 568.7 0 533.2 0C497.7 0 462.3 0 426.8 0C391.3 0 355.7 0 320 0C284.3 0 248.7 0 213.2 0C177.7 0 142.3 0 106.8 0C71.3 0 35.7 0 17.8 0L0 0Z" fill="#d53867"></path><path d="M0 10L17.8 12.7C35.7 15.3 71.3 20.7 106.8 23.7C142.3 26.7 177.7 27.3 213.2 25.2C248.7 23 284.3 18 320 15.2C355.7 12.3 391.3 11.7 426.8 14.2C462.3 16.7 497.7 22.3 533.2 21.3C568.7 20.3 604.3 12.7 640 10.2C675.7 7.7 711.3 10.3 746.8 11.2C782.3 12 817.7 11 853.2 13.5C888.7 16 924.3 22 942.2 25L960 28L960 0L942.2 0C924.3 0 888.7 0 853.2 0C817.7 0 782.3 0 746.8 0C711.3 0 675.7 0 640 0C604.3 0 568.7 0 533.2 0C497.7 0 462.3 0 426.8 0C391.3 0 355.7 0 320 0C284.3 0 248.7 0 213.2 0C177.7 0 142.3 0 106.8 0C71.3 0 35.7 0 17.8 0L0 0Z" fill="#c62368"></path></svg>